<svg xmlns="http://www.w3.org/2000/svg" viewBox="0 0 1200 1197.12">
  <path fill="#000000" d="M809.75,346.61l-.12,536.3c-.01,54.6-23.7,103.08-62.03,140.08-28.16,27.19-61.34,46.71-99.99,54.51l-36.15,7.3h-300.82s-33.18-6.31-33.18-6.31c-87.23-16.62-163.54-91.38-164.74-183.8l-.02-548.1,143.28.03-.02,541.87c1.8,39.26,36.63,67.71,74.18,67.64l265.63-.51c36.62-.07,65.54-28.36,70.35-63.2l.02-545.85,143.61.02Z"/>
  <path fill="#000000" d="M874.41,240.23l-270.1-.22c-36.28-.03-65.42,28.09-70.72,62.53l-.03,546.69-143.79.04.02-537.19c.92-109.71,100.37-199.52,206.39-199.59l281.62-.18c106.11-.07,206.83,79.32,209.48,190l.02,546.91-143.59.02V303.23c-4.92-33.49-32.71-62.97-69.29-63Z"/>
</svg>
